<svg width="300" height="80" viewBox="0 0 300 80" xmlns="http://www.w3.org/2000/svg" fill="none">
  <g transform="translate(0,6)">
    <path d="M30 0C17 0 6 11 6 24C6 40 30 70 30 70C30 70 54 40 54 24C54 11 43 0 30 0Z" fill="#0F1D38"/>
    <rect x="15" y="16" width="30" height="24" rx="4" fill="#FFFFFF"/>
    <rect x="19" y="12" width="4" height="8" rx="2" fill="#FFFFFF"/>
    <rect x="37" y="12" width="4" height="8" rx="2" fill="#FFFFFF"/>

    <rect x="18" y="20" width="6" height="6" rx="1" fill="#0F1D38"/>
    <rect x="26" y="20" width="6" height="6" rx="1" fill="#0F1D38"/>
    <rect x="34" y="20" width="6" height="6" rx="1" fill="#0F1D38"/>

    <rect x="18" y="28" width="6" height="6" rx="1" fill="#0F1D38"/>
    <rect x="26" y="28" width="6" height="6" rx="1" fill="#0F1D38"/>

    <rect x="34" y="28" width="6" height="6" rx="1.5" fill="#F57321"/>

    <path d="M36.2 31.5L37.2 32.6L38.9 30.4"
          stroke="#FFFFFF"
          stroke-width="1.2"
          stroke-linecap="round"
          stroke-linejoin="round"/>
  </g>

  <text x="70" y="50"
        font-family="Poppins, sans-serif"
        font-size="34"
        font-weight="600"
        fill="#0F1D38">
    Habita<tspan fill="#F57321">Plan</tspan>
  </text>
</svg>
